<svg width="500" height="400" viewBox="0 0 500 400" xmlns="http://www.w3.org/2000/svg">
  <defs>
    <linearGradient id="headsetGradient" x1="0%" y1="0%" x2="100%" y2="100%">
      <stop offset="0%" stop-color="#F6AD55" />
      <stop offset="100%" stop-color="#ED8936" />
    </linearGradient>
    
    <linearGradient id="screenGradient" x1="0%" y1="0%" x2="100%" y2="100%">
      <stop offset="0%" stop-color="#4299E1" />
      <stop offset="100%" stop-color="#2B6CB0" />
    </linearGradient>
    
    <linearGradient id="personGradient" x1="0%" y1="0%" x2="100%" y2="100%">
      <stop offset="0%" stop-color="#A0AEC0" />
      <stop offset="100%" stop-color="#718096" />
    </linearGradient>
    
    <filter id="glow" x="-20%" y="-20%" width="140%" height="140%">
      <feGaussianBlur stdDeviation="5" result="blur" />
      <feComposite in="SourceGraphic" in2="blur" operator="over" />
    </filter>
    
    <filter id="shadow" x="-10%" y="-10%" width="120%" height="130%">
      <feDropShadow dx="0" dy="10" stdDeviation="10" flood-color="#000" flood-opacity="0.3" />
    </filter>
  </defs>
  
  <!-- Background Elements -->
  <circle cx="250" cy="200" r="180" fill="#EBF4FF" opacity="0.5" />
  <circle cx="250" cy="200" r="150" fill="#E6FFFA" opacity="0.3" />
  
  <!-- Main Screen -->
  <rect x="120" y="100" width="260" height="200" rx="20" fill="url(#screenGradient)" filter="url(#shadow)" />
  <rect x="130" y="110" width="240" height="180" rx="15" fill="#F7FAFC" />
  
  <!-- Screen Content -->
  <rect x="150" y="130" width="100" height="10" rx="5" fill="#E2E8F0" />
  <rect x="150" y="150" width="200" height="8" rx="4" fill="#E2E8F0" />
  <rect x="150" y="165" width="180" height="8" rx="4" fill="#E2E8F0" />
  <rect x="150" y="180" width="160" height="8" rx="4" fill="#E2E8F0" />
  
  <!-- Chat Bubbles -->
  <rect x="150" y="210" width="120" height="40" rx="20" fill="#BEE3F8" />
  <rect x="200" y="260" width="120" height="40" rx="20" fill="#FED7AA" />
  
  <!-- Headset -->
  <g filter="url(#glow)">
    <path d="M 250,30 C 180,30 120,90 120,160 L 120,200 L 150,200 L 150,160 C 150,110 195,65 250,65 C 305,65 350,110 350,160 L 350,200 L 380,200 L 380,160 C 380,90 320,30 250,30 Z" fill="url(#headsetGradient)" opacity="0.9" />
    <circle cx="150" cy="200" r="30" fill="url(#headsetGradient)" />
    <circle cx="350" cy="200" r="30" fill="url(#headsetGradient)" />
  </g>
  
  <!-- Support Person Silhouette -->
  <g transform="translate(255, 350) scale(0.7)">
    <circle cx="0" cy="-100" r="35" fill="url(#personGradient)" />
    <path d="M -30,-70 C -30,-40 -60,20 -60,50 C -60,80 -30,80 0,80 C 30,80 60,80 60,50 C 60,20 30,-40 30,-70 Z" fill="url(#personGradient)" />
  </g>
  
  <!-- Decorative Elements -->
  <circle cx="150" cy="60" r="10" fill="#F6AD55" opacity="0.5" />
  <circle cx="350" cy="60" r="15" fill="#F6AD55" opacity="0.5" />
  <circle cx="400" cy="150" r="20" fill="#F6AD55" opacity="0.5" />
  <circle cx="100" cy="150" r="18" fill="#F6AD55" opacity="0.5" />
  <circle cx="400" cy="250" r="12" fill="#F6AD55" opacity="0.5" />
  <circle cx="100" cy="250" r="16" fill="#F6AD55" opacity="0.5" />
  
  <!-- Pulse Animation Circles -->
  <circle cx="250" cy="200" r="210" fill="none" stroke="#F6AD55" stroke-width="2" stroke-dasharray="20 10" opacity="0.3" />
  <circle cx="250" cy="200" r="230" fill="none" stroke="#F6AD55" stroke-width="1" stroke-dasharray="10 15" opacity="0.2" />
</svg> 