<?xml version="1.0" encoding="UTF-8"?>
<svg width="800" height="600" version="1.1" viewBox="0 0 800 600" xmlns="http://www.w3.org/2000/svg">
 <g>
  <!-- Ship -->
  <path d="M400 150 L500 250 L600 250 L550 350 L250 350 L200 250 L300 250 Z" fill="#f6ad55"/>
  <!-- Waves -->
  <path d="M150 350 Q 250 300 350 350 Q 450 400 550 350 Q 650 300 750 350" fill="none" stroke="#0052cc" stroke-width="8"/>
  <path d="M50 380 Q 150 330 250 380 Q 350 430 450 380 Q 550 330 650 380" fill="none" stroke="#0052cc" stroke-width="8"/>
  <!-- Birds -->
  <path d="M320 180 Q 330 170 340 180" fill="none" stroke="#f6ad55" stroke-width="3"/>
  <path d="M350 160 Q 360 150 370 160" fill="none" stroke="#f6ad55" stroke-width="3"/>
  <path d="M380 170 Q 390 160 400 170" fill="none" stroke="#f6ad55" stroke-width="3"/>
  <!-- Text -->
  <text x="400" y="450" fill="#0052cc" font-family="Arial" font-size="48" font-weight="bold" text-anchor="middle">OCEAN CROWN</text>
  <text x="400" y="490" fill="#0052cc" font-family="Arial" font-size="24" text-anchor="middle">Multilink Ent.</text>
 </g>
</svg> 