<?xml version="1.0" encoding="UTF-8" standalone="no"?>
<svg width="1200" height="800" xmlns="http://www.w3.org/2000/svg">
  <!-- Simple world map outline -->
  <g fill="none" stroke="#ccc" stroke-width="1.5">
    <!-- North America -->
    <path d="M150,180 C180,160 220,140 260,145 C300,150 320,180 350,190 C380,200 420,195 430,220 C440,245 430,270 410,290 C390,310 370,330 350,345 C330,360 300,370 280,380 C260,390 240,400 220,390 C200,380 190,360 175,340 C160,320 140,300 135,280 C130,260 130,240 140,220 C150,200 140,190 150,180 Z" />
    
    <!-- South America -->
    <path d="M280,380 C290,410 310,430 305,450 C300,470 290,490 285,510 C280,530 270,550 260,575 C250,600 240,630 220,650 C200,670 180,680 160,670 C140,660 135,640 130,620 C125,600 120,580 130,560 C140,540 155,520 175,515 C195,510 220,505 240,490 C260,475 270,450 275,430 C280,410 270,395 280,380 Z" />
    
    <!-- Europe -->
    <path d="M450,140 C470,130 490,125 510,130 C530,135 550,145 570,150 C590,155 610,160 625,175 C640,190 650,210 645,230 C640,250 630,265 615,275 C600,285 580,290 560,295 C540,300 520,305 500,300 C480,295 460,285 445,270 C430,255 425,235 430,215 C435,195 440,175 450,160 C460,145 445,150 450,140 Z" />
    
    <!-- Africa -->
    <path d="M500,300 C520,320 535,340 550,355 C565,370 580,380 590,400 C600,420 610,440 615,465 C620,490 620,515 615,540 C610,565 600,585 585,600 C570,615 550,625 530,635 C510,645 490,650 470,640 C450,630 435,610 425,590 C415,570 410,550 405,530 C400,510 395,490 400,470 C405,450 415,430 430,415 C445,400 465,390 480,370 C495,350 490,330 500,300 Z" />
    
    <!-- Asia -->
    <path d="M625,175 C645,165 665,155 685,150 C705,145 725,145 745,150 C765,155 785,165 800,180 C815,195 825,215 835,235 C845,255 850,275 855,300 C860,325 860,350 855,375 C850,400 840,425 825,445 C810,465 790,480 770,490 C750,500 730,505 710,510 C690,515 670,515 650,505 C630,495 615,480 605,460 C595,440 590,420 590,400 C590,380 595,360 605,340 C615,320 630,300 640,280 C650,260 655,240 650,220 C645,200 635,185 625,175 Z" />
    
    <!-- Australia -->
    <path d="M800,450 C820,445 840,440 860,445 C880,450 895,460 905,475 C915,490 920,510 925,530 C930,550 930,570 925,590 C920,610 910,630 895,645 C880,660 860,670 840,675 C820,680 800,675 780,665 C760,655 745,640 735,620 C725,600 720,580 725,560 C730,540 740,520 755,505 C770,490 785,480 800,465 C815,450 795,455 800,450 Z" />
    
    <!-- Antarctica simplified -->
    <path d="M300,750 C350,745 400,740 450,745 C500,750 550,755 600,750 C650,745 700,740 750,745 C800,750 850,755 875,730 C900,705 900,680 900,655 C900,630 900,605 875,590 C850,575 825,570 800,570 C775,570 750,570 725,570 C700,570 675,570 650,570 C625,570 600,570 575,570 C550,570 525,570 500,570 C475,570 450,570 425,570 C400,570 375,570 350,570 C325,570 300,570 275,570 C250,570 225,570 200,580 C175,590 175,615 175,640 C175,665 175,690 200,715 C225,740 275,745 300,750 Z" />
  </g>
  
  <!-- Shipping routes -->
  <g stroke="#F6AD55" stroke-width="3" stroke-dasharray="5,5">
    <!-- Trans-Pacific -->
    <path d="M200,300 C300,250 400,230 500,220 C600,210 700,220 800,240" />
    
    <!-- Trans-Atlantic -->
    <path d="M300,250 C400,200 500,190 600,200" />
    
    <!-- Europe-Asia -->
    <path d="M600,200 C650,220 700,230 750,250" />
    
    <!-- Asia-Australia -->
    <path d="M750,350 C780,400 800,450 820,500" />
  </g>
</svg> 